<svg xmlns="http://www.w3.org/2000/svg" xmlns:xlink="http://www.w3.org/1999/xlink" width="638" zoomAndPan="magnify" viewBox="0 0 478.5 318.749995" height="425" preserveAspectRatio="xMidYMid meet" version="1.0"><defs><clipPath id="b204166405"><path d="M 2 0.0429688 L 473 0.0429688 L 473 253 L 2 253 Z M 2 0.0429688 " clip-rule="nonzero"/></clipPath><clipPath id="1bd4830d41"><path d="M 25 286 L 450 286 L 450 318.457031 L 25 318.457031 Z M 25 286 " clip-rule="nonzero"/></clipPath></defs><g clip-path="url(#b204166405)"><path fill="#ffffff" d="M 466.386719 69.933594 C 446.492188 44.441406 412.089844 35.285156 382.195312 47.507812 L 311.363281 76.417969 L 174.355469 2.714844 C 169.898438 0.339844 164.601562 0.0429688 159.949219 1.972656 L 113.222656 21.027344 C 109.511719 22.5625 108.570312 27.414062 111.441406 30.234375 L 204.644531 120.023438 L 101.195312 162.246094 C 98.226562 163.480469 94.859375 163.480469 91.890625 162.246094 L 41.007812 141.308594 C 38.632812 140.316406 35.957031 140.316406 33.582031 141.257812 L 8.289062 151.40625 C 2.351562 153.78125 0.222656 161.15625 4.03125 166.351562 L 46.898438 225.058594 C 64.914062 249.757812 97.433594 258.960938 125.746094 247.378906 L 455.054688 112.894531 C 472.082031 105.917969 477.773438 84.484375 466.386719 69.933594 Z M 466.386719 69.933594 " fill-opacity="1" fill-rule="nonzero"/></g><g clip-path="url(#1bd4830d41)"><path fill="#ffffff" d="M 433.820312 286.382812 L 41.253906 286.382812 C 32.394531 286.382812 25.21875 293.5625 25.21875 302.421875 C 25.21875 311.28125 32.394531 318.457031 41.253906 318.457031 L 433.820312 318.457031 C 442.679688 318.457031 449.855469 311.28125 449.855469 302.421875 C 449.855469 293.5625 442.679688 286.382812 433.820312 286.382812 Z M 433.820312 286.382812 " fill-opacity="1" fill-rule="nonzero"/></g></svg>