<svg xmlns="http://www.w3.org/2000/svg" xmlns:xlink="http://www.w3.org/1999/xlink" width="1906" zoomAndPan="magnify" viewBox="0 0 1429.5 323.249999" height="431" preserveAspectRatio="xMidYMid meet" version="1.0"><defs><clipPath id="e843e0b525"><path d="M 1.40625 143 L 1115 143 L 1115 179 L 1.40625 179 Z M 1.40625 143 " clip-rule="nonzero"/></clipPath><clipPath id="97c7bb6e8a"><path d="M 1123 0 L 1427.597656 0 L 1427.597656 322.328125 L 1123 322.328125 Z M 1123 0 " clip-rule="nonzero"/></clipPath></defs><g clip-path="url(#e843e0b525)"><path fill="#ffffff" d="M 19.289062 143.703125 C 9.675781 143.703125 1.828125 151.550781 1.828125 161.164062 C 1.828125 170.777344 9.683594 178.625 19.289062 178.625 C 27.394531 178.625 34.25 173.042969 36.195312 165.527344 L 62.941406 165.527344 C 67.765625 165.527344 69.105469 158.695312 64.265625 157.003906 C 63.808594 156.871094 63.433594 156.800781 62.941406 156.800781 L 36.195312 156.800781 C 34.25 149.285156 27.394531 143.703125 19.289062 143.703125 Z M 1110.535156 165.527344 C 1115.359375 165.527344 1116.695312 158.695312 1111.859375 157.003906 C 1111.398438 156.871094 1111.019531 156.800781 1110.535156 156.800781 L 1066.882812 156.800781 C 1064.394531 156.800781 1062.414062 158.871094 1062.523438 161.363281 C 1062.628906 163.6875 1064.550781 165.53125 1066.882812 165.53125 L 1110.535156 165.53125 Z M 1023.230469 165.527344 C 1028.058594 165.527344 1029.394531 158.695312 1024.558594 157.003906 C 1024.097656 156.871094 1023.726562 156.800781 1023.230469 156.800781 L 979.582031 156.800781 C 977.089844 156.800781 975.113281 158.871094 975.222656 161.363281 C 975.320312 163.6875 977.246094 165.53125 979.582031 165.53125 L 1023.230469 165.53125 Z M 935.929688 165.527344 C 940.753906 165.527344 942.09375 158.695312 937.257812 157.003906 C 936.796875 156.871094 936.421875 156.800781 935.929688 156.800781 L 892.277344 156.800781 C 889.789062 156.800781 887.808594 158.871094 887.917969 161.363281 C 888.019531 163.6875 889.941406 165.53125 892.277344 165.53125 L 935.929688 165.53125 Z M 848.632812 165.527344 C 853.460938 165.527344 854.792969 158.695312 849.957031 157.003906 C 849.496094 156.871094 849.121094 156.800781 848.632812 156.800781 L 804.984375 156.800781 C 802.492188 156.800781 800.511719 158.871094 800.625 161.363281 C 800.722656 163.6875 802.648438 165.53125 804.984375 165.53125 L 848.632812 165.53125 Z M 761.332031 165.527344 C 766.15625 165.527344 767.496094 158.695312 762.652344 157.003906 C 762.191406 156.871094 761.820312 156.800781 761.332031 156.800781 L 717.679688 156.800781 C 715.191406 156.800781 713.210938 158.871094 713.320312 161.363281 C 713.421875 163.6875 715.34375 165.53125 717.679688 165.53125 L 761.332031 165.53125 Z M 674.03125 165.527344 C 678.855469 165.527344 680.195312 158.695312 675.359375 157.003906 C 674.898438 156.871094 674.519531 156.800781 674.03125 156.800781 L 630.378906 156.800781 C 627.890625 156.800781 625.910156 158.871094 626.019531 161.363281 C 626.125 163.6875 628.050781 165.53125 630.378906 165.53125 L 674.03125 165.53125 Z M 586.730469 165.527344 C 591.554688 165.527344 592.890625 158.695312 588.054688 157.003906 C 587.59375 156.871094 587.222656 156.800781 586.730469 156.800781 L 543.078125 156.800781 C 540.589844 156.800781 538.609375 158.871094 538.71875 161.363281 C 538.816406 163.6875 540.742188 165.53125 543.078125 165.53125 L 586.730469 165.53125 Z M 499.425781 165.527344 C 504.253906 165.527344 505.589844 158.695312 500.753906 157.003906 C 500.292969 156.871094 499.921875 156.800781 499.425781 156.800781 L 455.777344 156.800781 C 453.285156 156.800781 451.308594 158.871094 451.417969 161.363281 C 451.515625 163.6875 453.441406 165.53125 455.777344 165.53125 L 499.425781 165.53125 Z M 412.128906 165.527344 C 416.957031 165.527344 418.289062 158.695312 413.453125 157.003906 C 412.992188 156.871094 412.617188 156.800781 412.128906 156.800781 L 368.480469 156.800781 C 365.988281 156.800781 364.011719 158.871094 364.121094 161.363281 C 364.21875 163.6875 366.144531 165.53125 368.480469 165.53125 L 412.128906 165.53125 Z M 324.828125 165.527344 C 329.65625 165.527344 330.992188 158.695312 326.152344 157.003906 C 325.691406 156.871094 325.316406 156.800781 324.828125 156.800781 L 281.179688 156.800781 C 278.6875 156.800781 276.707031 158.871094 276.820312 161.363281 C 276.917969 163.6875 278.84375 165.53125 281.179688 165.53125 L 324.828125 165.53125 Z M 237.527344 165.527344 C 242.351562 165.527344 243.691406 158.695312 238.847656 157.003906 C 238.394531 156.871094 238.015625 156.800781 237.527344 156.800781 L 193.875 156.800781 C 191.386719 156.800781 189.40625 158.871094 189.515625 161.363281 C 189.621094 163.6875 191.546875 165.53125 193.875 165.53125 L 237.527344 165.53125 Z M 150.226562 165.527344 C 155.050781 165.527344 156.390625 158.695312 151.550781 157.003906 C 151.09375 156.871094 150.71875 156.800781 150.226562 156.800781 L 106.574219 156.800781 C 104.085938 156.800781 102.105469 158.871094 102.214844 161.363281 C 102.3125 163.6875 104.238281 165.53125 106.574219 165.53125 L 150.226562 165.53125 Z M 150.226562 165.527344 " fill-opacity="1" fill-rule="nonzero"/></g><g clip-path="url(#97c7bb6e8a)"><path fill="#ffffff" d="M 1235.523438 319.890625 C 1254.933594 288.542969 1274.339844 257.183594 1293.75 225.835938 L 1321.90625 180.351562 C 1354.730469 180.351562 1376.355469 180.351562 1376.355469 180.351562 C 1444.113281 180.351562 1444.113281 141.980469 1376.355469 141.980469 C 1376.355469 141.980469 1354.726562 141.980469 1321.90625 141.980469 L 1293.75 96.5 C 1274.339844 65.148438 1254.933594 33.796875 1235.523438 2.441406 C 1234.515625 0.8125 1232.738281 -0.175781 1230.824219 -0.175781 L 1217.9375 -0.175781 C 1216.621094 -0.175781 1215.707031 1.136719 1216.152344 2.375 L 1242.417969 75.238281 L 1240.519531 75.238281 C 1239.929688 75.238281 1239.367188 75.375 1238.957031 75.605469 C 1238.546875 75.832031 1238.285156 76.148438 1238.285156 76.5 C 1238.285156 77.195312 1239.375 77.761719 1240.519531 77.761719 L 1243.328125 77.761719 L 1252.574219 103.394531 L 1252.574219 114.671875 L 1249.707031 114.671875 C 1249.113281 114.671875 1248.558594 114.816406 1248.144531 115.046875 C 1247.738281 115.269531 1247.472656 115.589844 1247.472656 115.933594 C 1247.472656 116.628906 1248.566406 117.195312 1249.707031 117.195312 L 1252.574219 117.195312 L 1252.574219 141.988281 C 1245.503906 141.988281 1238.304688 141.988281 1231.015625 141.988281 C 1216.140625 141.988281 1203.335938 142.640625 1192.328125 143.703125 L 1192.339844 143.703125 L 1161.339844 97.863281 C 1160.863281 97.152344 1160.058594 96.730469 1159.203125 96.730469 L 1151.304688 96.730469 C 1149.664062 96.730469 1148.441406 98.238281 1148.78125 99.839844 L 1153.816406 123.835938 L 1152.035156 123.835938 C 1151.441406 123.835938 1150.882812 123.980469 1150.472656 124.210938 C 1150.058594 124.433594 1149.796875 124.75 1149.796875 125.097656 C 1149.796875 125.792969 1150.886719 126.359375 1152.035156 126.359375 L 1154.347656 126.359375 L 1157.875 143.171875 L 1155.960938 143.171875 C 1155.367188 143.171875 1154.808594 143.308594 1154.398438 143.539062 C 1153.988281 143.765625 1153.722656 144.082031 1153.722656 144.433594 C 1153.722656 145.128906 1154.816406 145.695312 1155.960938 145.695312 L 1158.402344 145.695312 L 1159.121094 149.121094 C 1146.96875 152.144531 1139.433594 155.511719 1135.128906 157.914062 L 1129.402344 157.914062 C 1126.441406 157.914062 1123.625 159.371094 1123.625 161.167969 C 1123.625 162.96875 1126.4375 164.425781 1129.402344 164.425781 L 1135.128906 164.425781 C 1139.433594 166.835938 1146.960938 170.203125 1159.121094 173.21875 L 1158.402344 176.644531 L 1155.960938 176.644531 C 1154.816406 176.644531 1153.722656 177.210938 1153.722656 177.90625 C 1153.722656 178.257812 1153.988281 178.570312 1154.398438 178.800781 C 1154.808594 179.03125 1155.367188 179.167969 1155.960938 179.167969 L 1157.875 179.167969 L 1154.347656 195.980469 L 1152.035156 195.980469 C 1150.886719 195.980469 1149.796875 196.546875 1149.796875 197.242188 C 1149.796875 197.585938 1150.058594 197.90625 1150.472656 198.128906 C 1150.882812 198.359375 1151.441406 198.503906 1152.035156 198.503906 L 1153.816406 198.503906 L 1148.78125 222.5 C 1148.449219 224.105469 1149.671875 225.609375 1151.304688 225.609375 L 1159.203125 225.609375 C 1160.058594 225.609375 1160.859375 225.1875 1161.339844 224.472656 L 1192.339844 178.636719 L 1192.328125 178.636719 C 1203.335938 179.699219 1216.144531 180.351562 1231.015625 180.351562 C 1238.304688 180.351562 1245.503906 180.351562 1252.574219 180.351562 L 1252.574219 205.144531 L 1249.707031 205.144531 C 1248.566406 205.144531 1247.472656 205.707031 1247.472656 206.40625 C 1247.472656 206.75 1247.738281 207.070312 1248.144531 207.292969 C 1248.558594 207.523438 1249.113281 207.667969 1249.707031 207.667969 L 1252.574219 207.667969 L 1252.574219 218.945312 L 1243.328125 244.578125 L 1240.519531 244.578125 C 1239.375 244.578125 1238.285156 245.144531 1238.285156 245.839844 C 1238.285156 246.191406 1238.546875 246.503906 1238.957031 246.734375 C 1239.367188 246.964844 1239.929688 247.101562 1240.519531 247.101562 L 1242.417969 247.101562 L 1216.152344 319.964844 C 1215.707031 321.203125 1216.621094 322.511719 1217.9375 322.511719 L 1230.824219 322.511719 C 1232.738281 322.511719 1234.515625 321.519531 1235.523438 319.898438 Z M 1235.523438 319.890625 " fill-opacity="1" fill-rule="evenodd"/></g></svg>